HIERARCHY
ROOT hip
{
	OFFSET 0.000000 103.560692 0.219151
	CHANNELS 6 Xposition Yposition Zposition Zrotation Xrotation Yrotation
	JOINT pelvis
	{
		OFFSET 0.000000 1.955040 1.591925
		CHANNELS 3 Zrotation Xrotation Yrotation
		JOINT lThigh
		{
			OFFSET 8.341582 -7.629402 -0.646910
			CHANNELS 3 Zrotation Xrotation Yrotation
			JOINT lShin
			{
				OFFSET 2.185763 -45.093132 -0.705710
				CHANNELS 3 Zrotation Xrotation Yrotation
				JOINT lFoot
				{
					OFFSET 0.730976 -46.379768 -2.264282
					CHANNELS 3 Zrotation Xrotation Yrotation
					JOINT lToe
					{
						OFFSET 2.797621 -4.200020 10.742415
						CHANNELS 3 Zrotation Xrotation Yrotation
						JOINT lBigToe
						{
							OFFSET -2.433708 -0.269072 1.841711
							CHANNELS 3 Zrotation Xrotation Yrotation
							End Site
							{
								OFFSET -10.527346 -33.657166 -1.340707
							}
						}
					}
				}
			}
		}
		JOINT rThigh
		{
			OFFSET -8.341582 -7.629402 -0.646910
			CHANNELS 3 Zrotation Xrotation Yrotation
			JOINT rShin
			{
				OFFSET -2.185763 -45.093132 -0.705710
				CHANNELS 3 Zrotation Xrotation Yrotation
				JOINT rFoot
				{
					OFFSET -0.730976 -46.379768 -2.264282
					CHANNELS 3 Zrotation Xrotation Yrotation
					JOINT rToe
					{
						OFFSET -2.797621 -4.200019 10.742415
						CHANNELS 3 Zrotation Xrotation Yrotation
						JOINT rBigToe
						{
							OFFSET 2.433708 -0.269072 1.841711
							CHANNELS 3 Zrotation Xrotation Yrotation
							End Site
							{
								OFFSET 0.000000 24.298409 -0.425647
							}
						}
					}
				}
			}
		}
	}
	JOINT abdomen
	{
		OFFSET 0.000000 1.841293 -3.551421
		CHANNELS 3 Zrotation Xrotation Yrotation
		JOINT abdomen2
		{
			OFFSET 0.000000 5.439911 3.419600
			CHANNELS 3 Zrotation Xrotation Yrotation
			JOINT chest
			{
				OFFSET 0.000000 14.715073 -2.918270
				CHANNELS 3 Zrotation Xrotation Yrotation
				JOINT neck
				{
					OFFSET 0.000000 26.294655 -1.248052
					CHANNELS 3 Zrotation Xrotation Yrotation
					JOINT head
					{
						OFFSET 0.000000 8.807068 1.063695
						CHANNELS 3 Zrotation Xrotation Yrotation
						JOINT rEye
						{
							OFFSET -3.030866 6.632080 7.702687
							CHANNELS 3 Zrotation Xrotation Yrotation
							End Site
							{
								OFFSET 2.969555 -11.022598 8.626689
							}
						}
						JOINT lEye
						{
							OFFSET 3.030866 6.632080 7.702687
							CHANNELS 3 Zrotation Xrotation Yrotation
							End Site
							{
								OFFSET 0.000000 -15.881760 10.104412
							}
						}
						JOINT upperJaw
						{
							OFFSET 0.000000 1.922699 2.891887
							CHANNELS 3 Zrotation Xrotation Yrotation
							End Site
							{
								OFFSET 0.000000 -19.386169 10.230839
							}
						}
						JOINT lowerJaw
						{
							OFFSET 0.000000 1.857620 2.686640
							CHANNELS 3 Zrotation Xrotation Yrotation
							JOINT tongueBase
							{
								OFFSET 0.000000 -3.019135 2.746916
								CHANNELS 3 Zrotation Xrotation Yrotation
								JOINT tongue01
								{
									OFFSET 0.000000 0.664124 0.223355
									CHANNELS 3 Zrotation Xrotation Yrotation
									JOINT tongue02
									{
										OFFSET 0.000000 0.339737 0.715627
										CHANNELS 3 Zrotation Xrotation Yrotation
										JOINT tongue03
										{
											OFFSET 0.000000 0.123444 0.730634
											CHANNELS 3 Zrotation Xrotation Yrotation
											JOINT tongue04
											{
												OFFSET 0.000000 0.017212 0.737415
												CHANNELS 3 Zrotation Xrotation Yrotation
												JOINT tongue05
												{
													OFFSET 0.000000 -0.021011 0.632440
													CHANNELS 3 Zrotation Xrotation Yrotation
													JOINT tongueTip
													{
														OFFSET 0.000000 -0.014404 0.601796
														CHANNELS 3 Zrotation Xrotation Yrotation
														End Site
														{
															OFFSET -14.139406 -2.625778 0.472826
														}
													}
												}
											}
										}
									}
								}
							}
						}
					}
				}
				JOINT rCollar
				{
					OFFSET -2.109295 21.452370 3.768136
					CHANNELS 3 Zrotation Xrotation Yrotation
					JOINT rShldr
					{
						OFFSET -11.491621 -2.568573 -4.940255
						CHANNELS 3 Zrotation Xrotation Yrotation
						JOINT rForeArm
						{
							OFFSET -28.789030 -0.213806 2.098380
							CHANNELS 3 Zrotation Xrotation Yrotation
							JOINT rHand
							{
								OFFSET -22.260895 -0.869583 10.391586
								CHANNELS 3 Zrotation Xrotation Yrotation
								JOINT rThumb1
								{
									OFFSET -0.628075 0.137405 2.362409
									CHANNELS 3 Zrotation Xrotation Yrotation
									JOINT rThumb2
									{
										OFFSET 0.085205 -0.600235 3.826079
										CHANNELS 3 Zrotation Xrotation Yrotation
										JOINT rThumb3
										{
											OFFSET -1.255478 -0.879211 2.439162
											CHANNELS 3 Zrotation Xrotation Yrotation
											End Site
											{
												OFFSET -2.963715 0.538574 4.059553
											}
										}
									}
								}
								JOINT rCarpal1
								{
									OFFSET -0.855530 1.026047 1.621985
									CHANNELS 3 Zrotation Xrotation Yrotation
									JOINT rIndex1
									{
										OFFSET -3.951324 0.390884 3.873290
										CHANNELS 3 Zrotation Xrotation Yrotation
										JOINT rIndex2
										{
											OFFSET -3.071884 -1.259598 2.506104
											CHANNELS 3 Zrotation Xrotation Yrotation
											JOINT rIndex3
											{
												OFFSET -1.394112 -1.446640 1.203302
												CHANNELS 3 Zrotation Xrotation Yrotation
												End Site
												{
													OFFSET -3.392448 -1.258026 0.533405
												}
											}
										}
									}
									JOINT rMid1
									{
										OFFSET -5.422974 0.107910 2.002650
										CHANNELS 3 Zrotation Xrotation Yrotation
										JOINT rMid2
										{
											OFFSET -3.599533 -1.323776 2.090647
											CHANNELS 3 Zrotation Xrotation Yrotation
											JOINT rMid3
											{
												OFFSET -1.360191 -1.598495 1.068055
												CHANNELS 3 Zrotation Xrotation Yrotation
												End Site
												{
													OFFSET -4.087769 -0.460876 0.069540
												}
											}
										}
									}
								}
								JOINT rCarpal2
								{
									OFFSET -1.942749 0.556229 -0.337217
									CHANNELS 3 Zrotation Xrotation Yrotation
									JOINT rRing1
									{
										OFFSET -4.762787 -0.121170 2.349089
										CHANNELS 3 Zrotation Xrotation Yrotation
										JOINT rRing2
										{
											OFFSET -3.380348 -1.337097 1.356700
											CHANNELS 3 Zrotation Xrotation Yrotation
											JOINT rRing3
											{
												OFFSET -1.430290 -1.499649 0.914224
												CHANNELS 3 Zrotation Xrotation Yrotation
												End Site
												{
													OFFSET -1.783272 -2.215851 -0.391895
												}
											}
										}
									}
									JOINT rPinky1
									{
										OFFSET -5.232559 -1.313721 0.336493
										CHANNELS 3 Zrotation Xrotation Yrotation
										JOINT rPinky2
										{
											OFFSET -2.217606 -1.389603 0.800693
											CHANNELS 3 Zrotation Xrotation Yrotation
											JOINT rPinky3
											{
												OFFSET -0.886887 -1.462280 0.774199
												CHANNELS 3 Zrotation Xrotation Yrotation
												End Site
												{
													OFFSET 14.139406 -2.625778 0.472826
												}
											}
										}
									}
								}
							}
						}
					}
				}
				JOINT lCollar
				{
					OFFSET 2.109295 21.452370 3.768136
					CHANNELS 3 Zrotation Xrotation Yrotation
					JOINT lShldr
					{
						OFFSET 11.491621 -2.568573 -4.940255
						CHANNELS 3 Zrotation Xrotation Yrotation
						JOINT lForeArm
						{
							OFFSET 28.789030 -0.213806 2.098380
							CHANNELS 3 Zrotation Xrotation Yrotation
							JOINT lHand
							{
								OFFSET 22.260895 -0.869583 10.391586
								CHANNELS 3 Zrotation Xrotation Yrotation
								JOINT lThumb1
								{
									OFFSET 0.628075 0.137405 2.362409
									CHANNELS 3 Zrotation Xrotation Yrotation
									JOINT lThumb2
									{
										OFFSET -0.085205 -0.600235 3.826079
										CHANNELS 3 Zrotation Xrotation Yrotation
										JOINT lThumb3
										{
											OFFSET 1.255478 -0.879211 2.439162
											CHANNELS 3 Zrotation Xrotation Yrotation
											End Site
											{
												OFFSET 2.963715 0.538574 4.059553
											}
										}
									}
								}
								JOINT lCarpal1
								{
									OFFSET 0.855530 1.026047 1.621985
									CHANNELS 3 Zrotation Xrotation Yrotation
									JOINT lIndex1
									{
										OFFSET 3.951324 0.390884 3.873290
										CHANNELS 3 Zrotation Xrotation Yrotation
										JOINT lIndex2
										{
											OFFSET 3.071884 -1.259598 2.506104
											CHANNELS 3 Zrotation Xrotation Yrotation
											JOINT lIndex3
											{
												OFFSET 1.394112 -1.446640 1.203302
												CHANNELS 3 Zrotation Xrotation Yrotation
												End Site
												{
													OFFSET 3.392448 -1.258026 0.533405
												}
											}
										}
									}
									JOINT lMid1
									{
										OFFSET 5.422974 0.107910 2.002650
										CHANNELS 3 Zrotation Xrotation Yrotation
										JOINT lMid2
										{
											OFFSET 3.599533 -1.323776 2.090647
											CHANNELS 3 Zrotation Xrotation Yrotation
											JOINT lMid3
											{
												OFFSET 1.360191 -1.598495 1.068055
												CHANNELS 3 Zrotation Xrotation Yrotation
												End Site
												{
													OFFSET 4.087769 -0.460876 0.069540
												}
											}
										}
									}
								}
								JOINT lCarpal2
								{
									OFFSET 1.942749 0.556229 -0.337217
									CHANNELS 3 Zrotation Xrotation Yrotation
									JOINT lRing1
									{
										OFFSET 4.762787 -0.121170 2.349089
										CHANNELS 3 Zrotation Xrotation Yrotation
										JOINT lRing2
										{
											OFFSET 3.380348 -1.337097 1.356700
											CHANNELS 3 Zrotation Xrotation Yrotation
											JOINT lRing3
											{
												OFFSET 1.430290 -1.499649 0.914224
												CHANNELS 3 Zrotation Xrotation Yrotation
												End Site
												{
													OFFSET 1.783272 -2.215851 -0.391895
												}
											}
										}
									}
									JOINT lPinky1
									{
										OFFSET 5.232559 -1.313721 0.336493
										CHANNELS 3 Zrotation Xrotation Yrotation
										JOINT lPinky2
										{
											OFFSET 2.217606 -1.389603 0.800693
											CHANNELS 3 Zrotation Xrotation Yrotation
											JOINT lPinky3
											{
												OFFSET 0.886887 -1.462280 0.774199
												CHANNELS 3 Zrotation Xrotation Yrotation
												End Site
												{
													OFFSET -10.295957 -17.050110 17.461308
												}
											}
										}
									}
								}
							}
						}
					}
				}
				JOINT rPectoral
				{
					OFFSET -6.358840 6.360771 6.369920
					CHANNELS 3 Zrotation Xrotation Yrotation
					End Site
					{
						OFFSET 10.295957 -17.050110 17.461308
					}
				}
				JOINT lPectoral
				{
					OFFSET 6.358840 6.360771 6.369920
					CHANNELS 3 Zrotation Xrotation Yrotation
					End Site
					{
						OFFSET 10.295957 -17.050110 17.461308
					}
				}
			}
		}
	}
}
MOTION
Frames:	4
Frame Time:	0.00833333
-0.545579 0.000000 20.373899 0.000000 0.000000 0.000000 0.000000 0.000000 0.000000 -3.438057 -5.612421 -0.226044 0.927564 6.650485 0.066986 0.504990 2.644910 -0.111595 0.000000 0.000000 0.000000 0.000000 0.000000 0.000000 3.139799 -4.856526 0.207674 -0.933211 5.281244 -0.042863 -0.502524 3.258280 0.123797 0.000000 0.000000 0.000000 0.000000 0.000000 0.000000 0.000000 0.000000 0.000000 -0.194076 -0.000752 -0.005539 -0.053536 -0.001130 -0.009274 0.000000 0.000000 0.000000 0.000000 0.000000 0.000000 0.000000 0.000000 0.000000 0.000000 0.000000 0.000000 0.000000 0.000000 0.000000 0.000000 0.000000 0.000000 0.000000 0.000000 0.000000 0.000000 0.000000 0.000000 0.000000 0.000000 0.000000 0.000000 0.000000 0.000000 0.000000 0.000000 0.000000 0.000000 0.000000 0.000000 0.000000 0.000000 0.000000 1.005026 -4.457774 26.158192 1.570027 -0.237958 -25.006372 -0.033440 0.085671 -3.967694 0.000000 0.000000 0.000000 -3.683647 7.568618 -37.263580 -0.521451 -4.065397 4.748854 0.000000 0.000000 0.000000 0.000000 0.000000 0.000000 2.932509 3.077809 -1.696276 -16.520334 -9.538442 -4.612900 0.000000 0.000000 0.000000 -3.674220 -0.286563 -4.611559 -18.025385 -7.769807 -5.343670 0.000000 0.000000 0.000000 0.000000 0.000000 0.000000 -2.143522 2.948137 -9.589356 -18.472721 -6.951544 -4.630789 0.000000 0.000000 0.000000 -15.680961 4.379838 -16.697607 -18.444633 -4.749706 -6.966295 0.000000 0.000000 0.000000 -1.005026 -4.457774 -26.158192 -1.570027 -0.237958 25.006372 0.033440 0.085671 3.967694 0.000000 0.000000 0.000000 3.683647 7.568618 37.263580 0.521451 -4.065397 -4.748854 0.000000 0.000000 0.000000 0.000000 0.000000 0.000000 -2.932506 3.077815 1.696297 16.520334 -9.538442 4.612900 0.000000 0.000000 0.000000 3.674220 -0.286563 4.611559 18.025385 -7.769807 5.343670 0.000000 0.000000 0.000000 0.000000 0.000000 0.000000 2.143522 2.948137 9.589356 18.472721 -6.951544 4.630789 0.000000 0.000000 0.000000 15.680961 4.379838 16.697607 18.444633 -4.749706 6.966295 0.000000 0.000000 0.000000 -0.838774 0.020650 2.461073 0.838774 0.020650 -2.461073 
-0.626232 -0.778801 19.537399 0.967160 1.749630 -4.688190 0.000000 0.000000 0.000000 -4.018258 -5.181332 0.318681 0.917922 8.858607 0.102957 0.539771 1.005890 0.635391 0.000000 0.000000 0.000000 0.000000 0.000000 0.000000 3.497254 -6.209106 0.916683 -0.913321 10.919505 -0.125841 -0.671227 0.104887 -2.092270 0.000000 0.000000 0.000000 0.000000 0.000000 0.000000 0.000000 0.000000 0.000000 -1.064650 0.756343 -0.441343 0.198842 -1.311470 -0.143671 -4.645569 0.342904 -3.380209 6.240129 1.406900 -5.833370 0.000000 0.000000 0.000000 0.000000 0.000000 0.000000 0.000000 0.000000 0.000000 0.000000 0.000000 0.000000 0.000000 0.000000 0.000000 0.000000 0.000000 0.000000 0.000000 0.000000 0.000000 0.000000 0.000000 0.000000 0.000000 0.000000 0.000000 0.000000 0.000000 0.000000 0.000000 0.000000 0.000000 1.005026 -4.457774 26.158192 25.555401 -7.827575 -25.712126 -0.147340 0.254048 3.254862 0.000000 0.000000 0.000000 -3.683647 7.568618 -37.263580 -0.521451 -4.065397 4.748854 0.000000 0.000000 0.000000 0.000000 0.000000 0.000000 2.932509 3.077809 -1.696276 -16.520334 -9.538442 -4.612900 0.000000 0.000000 0.000000 -3.674220 -0.286563 -4.611559 -18.025385 -7.769807 -5.343670 0.000000 0.000000 0.000000 0.010401 2.262540 0.317084 -2.143522 2.948137 -9.589356 -18.472721 -6.951544 -4.630789 0.000000 0.000000 0.000000 -15.680961 4.379838 -16.697607 -18.444633 -4.749706 -6.966295 0.000000 0.000000 0.000000 -1.005026 -4.457774 -26.158192 -25.107805 -8.300826 25.738930 0.144012 0.242333 -3.773854 0.000000 0.000000 0.000000 3.683647 7.568618 37.263580 0.521451 -4.065397 -4.748854 0.000000 0.000000 0.000000 0.000000 0.000000 0.000000 -2.932506 3.077815 1.696297 16.520334 -9.538442 4.612900 0.000000 0.000000 0.000000 3.674220 -0.286563 4.611559 18.025385 -7.769807 5.343670 0.000000 0.000000 0.000000 -0.008042 2.013250 -0.282336 2.143522 2.948137 9.589356 18.472721 -6.951544 4.630789 0.000000 0.000000 0.000000 15.680961 4.379838 16.697607 18.444633 -4.749706 6.966295 0.000000 0.000000 0.000000 -0.838774 0.020650 2.461073 0.838774 0.020650 -2.461073 
-0.629211 -0.782303 19.541100 0.942522 1.735983 -4.644936 0.000000 0.000000 0.000000 -4.640741 -4.724626 0.896560 0.907619 11.193460 0.141478 0.622951 -0.727424 1.425330 0.000000 0.000000 0.000000 0.000000 0.000000 0.000000 3.910233 -7.637494 1.671101 -0.893593 16.880627 -0.216664 -1.114760 -3.221459 -4.439919 0.000000 0.000000 0.000000 0.000000 0.000000 0.000000 0.000000 0.000000 0.000000 -1.972670 1.555170 -0.902830 0.458521 -2.696390 -0.285976 -9.515566 0.706951 -6.953029 13.154198 2.840080 -12.009898 0.000000 0.000000 0.000000 0.000000 0.000000 0.000000 0.000000 0.000000 0.000000 0.000000 0.000000 0.000000 0.000000 0.000000 0.000000 0.000000 0.000000 0.000000 0.000000 0.000000 0.000000 0.000000 0.000000 0.000000 0.000000 0.000000 0.000000 0.000000 0.000000 0.000000 0.000000 0.000000 0.000000 1.005026 -4.457774 26.158192 49.348949 -13.345200 -27.207973 -0.894881 1.147424 11.151152 0.000000 0.000000 0.000000 -3.683647 7.568618 -37.263580 -0.521451 -4.065397 4.748854 0.000000 0.000000 0.000000 0.000000 0.000000 0.000000 2.932509 3.077809 -1.696276 -16.520334 -9.538442 -4.612900 0.000000 0.000000 0.000000 -3.674220 -0.286563 -4.611559 -18.025385 -7.769807 -5.343670 0.000000 0.000000 0.000000 -0.005912 4.652599 0.653719 -2.143522 2.948137 -9.589356 -18.472721 -6.951544 -4.630789 0.000000 0.000000 0.000000 -15.680961 4.379838 -16.697607 -18.444633 -4.749706 -6.966295 0.000000 0.000000 0.000000 -1.005026 -4.457774 -26.158192 -48.821819 -14.600713 27.365870 0.998150 1.228918 -12.271770 0.000000 0.000000 0.000000 3.683647 7.568618 37.263580 0.521451 -4.065397 -4.748854 0.000000 0.000000 0.000000 0.000000 0.000000 0.000000 -2.932506 3.077815 1.696297 16.520334 -9.538442 4.612900 0.000000 0.000000 0.000000 3.674220 -0.286563 4.611559 18.025385 -7.769807 5.343670 0.000000 0.000000 0.000000 0.005295 4.177060 -0.586992 2.143522 2.948137 9.589356 18.472721 -6.951544 4.630789 0.000000 0.000000 0.000000 15.680961 4.379838 16.697607 18.444633 -4.749706 6.966295 0.000000 0.000000 0.000000 -0.838774 0.020650 2.461073 0.838774 0.020650 -2.461073 
-0.627877 -0.783104 19.543400 0.941813 1.730109 -4.601101 0.000000 0.000000 0.000000 -5.203548 -4.318124 1.406096 0.898414 13.274861 0.176304 0.737539 -2.270410 2.130500 0.000000 0.000000 0.000000 0.000000 0.000000 0.000000 4.310093 -8.909818 2.347860 -0.876515 22.195969 -0.301259 -1.741570 -6.161399 -6.562078 0.000000 0.000000 0.000000 0.000000 0.000000 0.000000 0.000000 0.000000 0.000000 -2.771219 2.269999 -1.313870 0.685118 -3.932049 -0.413323 -13.815998 1.014410 -10.142099 19.566795 4.046090 -17.539898 0.000000 0.000000 0.000000 0.000000 0.000000 0.000000 0.000000 0.000000 0.000000 0.000000 0.000000 0.000000 0.000000 0.000000 0.000000 0.000000 0.000000 0.000000 0.000000 0.000000 0.000000 0.000000 0.000000 0.000000 0.000000 0.000000 0.000000 0.000000 0.000000 0.000000 0.000000 0.000000 0.000000 1.005026 -4.457774 26.158192 69.317696 -15.478240 -20.458029 -2.293374 2.278892 18.444609 0.000000 0.000000 0.000000 -3.683647 7.568618 -37.263580 -0.521451 -4.065397 4.748854 0.000000 0.000000 0.000000 0.000000 0.000000 0.000000 2.932509 3.077809 -1.696276 -16.520334 -9.538442 -4.612900 0.000000 0.000000 0.000000 -3.674220 -0.286563 -4.611559 -18.025385 -7.769807 -5.343670 0.000000 0.000000 0.000000 -0.044373 6.786778 0.957217 -2.143522 2.948137 -9.589356 -18.472721 -6.951544 -4.630789 0.000000 0.000000 0.000000 -15.680961 4.379838 -16.697607 -18.444633 -4.749706 -6.966295 0.000000 0.000000 0.000000 -1.005026 -4.457774 -26.158192 -67.630814 -17.127375 23.614805 2.623687 2.456621 -20.147936 0.000000 0.000000 0.000000 3.683647 7.568618 37.263580 0.521451 -4.065397 -4.748854 0.000000 0.000000 0.000000 0.000000 0.000000 0.000000 -2.932506 3.077815 1.696297 16.520334 -9.538442 4.612900 0.000000 0.000000 0.000000 3.674220 -0.286563 4.611559 18.025385 -7.769807 5.343670 0.000000 0.000000 0.000000 0.035679 6.039168 -0.851209 2.143522 2.948137 9.589356 18.472721 -6.951544 4.630789 0.000000 0.000000 0.000000 15.680961 4.379838 16.697607 18.444633 -4.749706 6.966295 0.000000 0.000000 0.000000 -0.838774 0.020650 2.461073 0.838774 0.020650 -2.461073 
